<mxfile host="app.diagrams.net" modified="2024-01-07T16:06:49.442Z" agent="Mozilla/5.0 (X11; Linux x86_64) AppleWebKit/537.36 (KHTML, like Gecko) Chrome/120.0.0.0 Safari/537.36" etag="ybgjdzls1QSAkkcFDAJA" version="22.1.16" type="device">
  <diagram name="Seite-1" id="8ukfLXJoLrk3wmZzSsuZ">
    <mxGraphModel dx="1121" dy="655" grid="1" gridSize="10" guides="1" tooltips="1" connect="1" arrows="1" fold="1" page="1" pageScale="1" pageWidth="827" pageHeight="1169" math="0" shadow="0">
      <root>
        <mxCell id="0" />
        <mxCell id="1" parent="0" />
        <mxCell id="XuVMPpBauQemjuZKyTRp-1" value="&lt;font style=&quot;font-size: 37px;&quot;&gt;&lt;b&gt;Social Engineering&lt;/b&gt;&lt;/font&gt;" style="rounded=1;whiteSpace=wrap;html=1;verticalAlign=top;fillColor=#dae8fc;strokeColor=#6c8ebf;" vertex="1" parent="1">
          <mxGeometry x="230" y="80" width="540" height="310" as="geometry" />
        </mxCell>
        <mxCell id="XuVMPpBauQemjuZKyTRp-3" value="Fraud" style="rounded=1;whiteSpace=wrap;html=1;verticalAlign=top;fontSize=26;fontStyle=1;opacity=50;" vertex="1" parent="1">
          <mxGeometry x="80" y="150" width="550" height="230" as="geometry" />
        </mxCell>
        <mxCell id="XuVMPpBauQemjuZKyTRp-2" value="Scam" style="rounded=1;whiteSpace=wrap;html=1;fontSize=21;verticalAlign=top;fontStyle=1;fillColor=#fff2cc;strokeColor=#d6b656;" vertex="1" parent="1">
          <mxGeometry x="230" y="250" width="380" height="120" as="geometry" />
        </mxCell>
        <mxCell id="XuVMPpBauQemjuZKyTRp-5" value="Tailgating" style="rounded=1;whiteSpace=wrap;html=1;fontSize=21;" vertex="1" parent="1">
          <mxGeometry x="650" y="250" width="110" height="30" as="geometry" />
        </mxCell>
        <mxCell id="XuVMPpBauQemjuZKyTRp-6" value="Baiting" style="rounded=1;whiteSpace=wrap;html=1;fontSize=21;" vertex="1" parent="1">
          <mxGeometry x="650" y="210" width="110" height="30" as="geometry" />
        </mxCell>
        <mxCell id="XuVMPpBauQemjuZKyTRp-7" value="Pretexting" style="rounded=1;whiteSpace=wrap;html=1;fontSize=21;" vertex="1" parent="1">
          <mxGeometry x="650" y="170" width="110" height="30" as="geometry" />
        </mxCell>
        <mxCell id="XuVMPpBauQemjuZKyTRp-8" value="Insurance Fraud" style="rounded=1;whiteSpace=wrap;html=1;fontSize=21;" vertex="1" parent="1">
          <mxGeometry x="90" y="250" width="130" height="50" as="geometry" />
        </mxCell>
        <mxCell id="XuVMPpBauQemjuZKyTRp-9" value="Credit Card Fraud" style="rounded=1;whiteSpace=wrap;html=1;fontSize=21;" vertex="1" parent="1">
          <mxGeometry x="90" y="310" width="130" height="50" as="geometry" />
        </mxCell>
        <mxCell id="XuVMPpBauQemjuZKyTRp-10" value="Identity Theft" style="rounded=1;whiteSpace=wrap;html=1;fontSize=21;opacity=80;" vertex="1" parent="1">
          <mxGeometry x="90" y="190" width="280" height="50" as="geometry" />
        </mxCell>
        <mxCell id="XuVMPpBauQemjuZKyTRp-11" value="Investment Schemes" style="rounded=1;whiteSpace=wrap;html=1;fontSize=21;opacity=80;" vertex="1" parent="1">
          <mxGeometry x="240" y="300" width="110" height="50" as="geometry" />
        </mxCell>
        <mxCell id="XuVMPpBauQemjuZKyTRp-12" value="Romance Scams" style="rounded=1;whiteSpace=wrap;html=1;fontSize=21;opacity=80;" vertex="1" parent="1">
          <mxGeometry x="360" y="300" width="100" height="50" as="geometry" />
        </mxCell>
        <mxCell id="XuVMPpBauQemjuZKyTRp-13" value="Tech Support Scams" style="rounded=1;whiteSpace=wrap;html=1;fontSize=21;opacity=80;" vertex="1" parent="1">
          <mxGeometry x="465" y="300" width="140" height="50" as="geometry" />
        </mxCell>
        <mxCell id="XuVMPpBauQemjuZKyTRp-14" value="Phishing" style="rounded=1;whiteSpace=wrap;html=1;fontSize=21;opacity=80;" vertex="1" parent="1">
          <mxGeometry x="465" y="260" width="135" height="30" as="geometry" />
        </mxCell>
        <mxCell id="XuVMPpBauQemjuZKyTRp-15" value="Lottery Scams" style="rounded=1;whiteSpace=wrap;html=1;fontSize=21;opacity=80;" vertex="1" parent="1">
          <mxGeometry x="240" y="260" width="140" height="30" as="geometry" />
        </mxCell>
        <mxCell id="XuVMPpBauQemjuZKyTRp-16" value="USB drops" style="rounded=1;whiteSpace=wrap;html=1;fontSize=21;" vertex="1" parent="1">
          <mxGeometry x="650" y="290" width="110" height="30" as="geometry" />
        </mxCell>
        <mxCell id="XuVMPpBauQemjuZKyTRp-17" value="Elicitation" style="rounded=1;whiteSpace=wrap;html=1;fontSize=21;" vertex="1" parent="1">
          <mxGeometry x="650" y="330" width="110" height="30" as="geometry" />
        </mxCell>
      </root>
    </mxGraphModel>
  </diagram>
</mxfile>
